<?xml version="1.0" encoding="iso-8859-1"?>
<!-- Generator: Adobe Illustrator 16.0.0, SVG Export Plug-In . SVG Version: 6.00 Build 0)  -->
<!DOCTYPE svg PUBLIC "-//W3C//DTD SVG 1.1//EN" "http://www.w3.org/Graphics/SVG/1.1/DTD/svg11.dtd">
<svg version="1.1" id="&#x5716;&#x5C64;_1" focusable="false"
	 xmlns="http://www.w3.org/2000/svg" xmlns:xlink="http://www.w3.org/1999/xlink" x="0px" y="0px" width="612px" height="792px"
	 viewBox="0 0 612 792" style="enable-background:new 0 0 612 792;" xml:space="preserve">
<g>
	<path style="fill:#5B5759;" d="M43.714,680.143c0,36.215,29.357,65.571,65.571,65.571h393.429
		c36.214,0,65.571-29.356,65.571-65.571v-459H43.714V680.143z M415.285,330.429c0-12.071,9.786-21.857,21.857-21.857
		S459,318.357,459,330.429v306c0,12.071-9.786,21.857-21.857,21.857s-21.857-9.786-21.857-21.857V330.429z M284.143,330.429
		c0-12.071,9.786-21.857,21.857-21.857s21.856,9.786,21.856,21.857v306c0,12.071-9.785,21.857-21.856,21.857
		s-21.857-9.786-21.857-21.857V330.429z M153,330.429c0-12.071,9.785-21.857,21.856-21.857c12.072,0,21.857,9.786,21.857,21.857v306
		c0,12.071-9.785,21.857-21.857,21.857c-12.071,0-21.856-9.786-21.856-21.857V330.429z"/>
	<path style="fill:#5B5759;" d="M590.143,90H426.214l-12.841-25.545c-5.549-11.14-16.926-18.178-29.371-18.169H227.861
		c-12.422-0.048-23.777,7.01-29.233,18.169L185.785,90H21.857C9.785,90,0,99.786,0,111.857v43.714
		c0,12.071,9.785,21.857,21.856,21.857h568.286c12.071,0,21.857-9.786,21.857-21.857v-43.714C612,99.786,602.214,90,590.143,90z"/>
</g>
<path style="fill:#B44848;stroke:#000000;stroke-miterlimit:10;" d="M271.5,260.5"/>
</svg>
